<svg width="26" height="26" viewBox="0 0 26 26" fill="none" xmlns="http://www.w3.org/2000/svg">
<path d="M18.9911 8.41783C18.9153 8.407 18.8395 8.407 18.7636 8.41783C17.0845 8.36366 15.752 6.98782 15.752 5.29782C15.752 3.57532 17.1495 2.16699 18.8828 2.16699C20.6053 2.16699 22.0136 3.56449 22.0136 5.29782C22.0028 6.98782 20.6703 8.36366 18.9911 8.41783Z" fill="#34D5E5"/>
<path d="M22.5226 15.9254C21.3092 16.7379 19.6084 17.0413 18.0376 16.8354C18.4492 15.9471 18.6659 14.9613 18.6767 13.9213C18.6767 12.8379 18.4384 11.8088 17.9834 10.9096C19.5867 10.6929 21.2876 10.9963 22.5117 11.8088C24.2234 12.9354 24.2234 14.7879 22.5226 15.9254Z" fill="#34D5E5"/>
<path d="M6.9766 8.41783C7.05243 8.407 7.12827 8.407 7.2041 8.41783C8.88327 8.36366 10.2158 6.98782 10.2158 5.29782C10.2158 3.57532 8.81827 2.16699 7.08493 2.16699C5.36243 2.16699 3.9541 3.56449 3.9541 5.29782C3.96493 6.98782 5.29743 8.36366 6.9766 8.41783Z" fill="#34D5E5"/>
<path d="M7.09572 13.9205C7.09572 14.9713 7.32322 15.968 7.73488 16.8672C6.20738 17.0297 4.61488 16.7047 3.44488 15.9355C1.73322 14.798 1.73322 12.9455 3.44488 11.808C4.60405 11.028 6.23988 10.7138 7.77822 10.8872C7.33405 11.7972 7.09572 12.8263 7.09572 13.9205Z" fill="#34D5E5"/>
<path d="M13.1302 17.1925C13.0435 17.1817 12.946 17.1817 12.8485 17.1925C10.8552 17.1275 9.2627 15.4917 9.2627 13.4767C9.2627 11.4183 10.9202 9.75 12.9894 9.75C15.0477 9.75 16.716 11.4183 16.716 13.4767C16.716 15.4917 15.1344 17.1275 13.1302 17.1925Z" fill="#1FACF3"/>
<path d="M9.60871 19.4354C7.97288 20.5295 7.97288 22.3279 9.60871 23.4112C11.472 24.657 14.527 24.657 16.3904 23.4112C18.0262 22.317 18.0262 20.5187 16.3904 19.4354C14.5379 18.1895 11.4829 18.1895 9.60871 19.4354Z" fill="#1FACF3"/>
</svg>
