<svg width="26" height="26" viewBox="0 0 26 26" fill="none" xmlns="http://www.w3.org/2000/svg">
<path d="M10.9528 4.33398C10.8661 4.65898 10.8337 5.01648 10.8337 5.41732V8.66732H5.41699V6.50065C5.41699 5.30898 6.39199 4.33398 7.58366 4.33398H10.9528Z" fill="#34D5E5"/>
<path d="M10.8337 20.5827V8.66602H5.41699C3.25033 8.66602 2.16699 9.74935 2.16699 11.916V20.5827C2.16699 22.7493 3.25033 23.8327 5.41699 23.8327H14.0837C11.917 23.8327 10.8337 22.7493 10.8337 20.5827ZM7.31283 18.416C7.31283 18.8602 6.94449 19.2285 6.50033 19.2285C6.05616 19.2285 5.68783 18.8602 5.68783 18.416V14.0827C5.68783 13.6385 6.05616 13.2702 6.50033 13.2702C6.94449 13.2702 7.31283 13.6385 7.31283 14.0827V18.416Z" fill="#1FACF3"/>
<path d="M15.1663 23.8327H14.083C11.9163 23.8327 10.833 22.7493 10.833 20.5827V5.41602C10.833 3.24935 11.9163 2.16602 14.083 2.16602H20.583C22.7497 2.16602 23.833 3.24935 23.833 5.41602V20.5827C23.833 22.7493 22.7497 23.8327 20.583 23.8327H19.4997" fill="#34D5E5"/>
<path d="M19.5003 19.4993V23.8327H15.167V19.4993C15.167 18.9035 15.6545 18.416 16.2503 18.416H18.417C19.0128 18.416 19.5003 18.9035 19.5003 19.4993Z" fill="white"/>
<path d="M15.167 14.8952C14.7228 14.8952 14.3545 14.5268 14.3545 14.0827V8.66602C14.3545 8.22185 14.7228 7.85352 15.167 7.85352C15.6112 7.85352 15.9795 8.22185 15.9795 8.66602V14.0827C15.9795 14.5268 15.6112 14.8952 15.167 14.8952Z" fill="white"/>
<path d="M19.5 14.8952C19.0558 14.8952 18.6875 14.5268 18.6875 14.0827V8.66602C18.6875 8.22185 19.0558 7.85352 19.5 7.85352C19.9442 7.85352 20.3125 8.22185 20.3125 8.66602V14.0827C20.3125 14.5268 19.9442 14.8952 19.5 14.8952Z" fill="white"/>
</svg>
