<svg width="26" height="26" viewBox="0 0 26 26" fill="none" xmlns="http://www.w3.org/2000/svg">
<path d="M10.8334 4.0625H12.1875V9.20833C12.1875 9.6525 12.5559 10.0208 13 10.0208C13.4442 10.0208 13.8125 9.6525 13.8125 9.20833V4.0625H15.1667C15.6109 4.0625 15.9792 3.69417 15.9792 3.25C15.9792 2.80583 15.6109 2.4375 15.1667 2.4375H10.8334C10.3892 2.4375 10.0209 2.80583 10.0209 3.25C10.0209 3.69417 10.3892 4.0625 10.8334 4.0625Z" fill="#baced9"/>
<path d="M15.1667 21.9378H13.8125V16.792C13.8125 16.3478 13.4442 15.9795 13 15.9795C12.5559 15.9795 12.1875 16.3478 12.1875 16.792V21.9378H10.8334C10.3892 21.9378 10.0209 22.3062 10.0209 22.7503C10.0209 23.1945 10.3892 23.5628 10.8334 23.5628H15.1667C15.6109 23.5628 15.9792 23.1945 15.9792 22.7503C15.9792 22.3062 15.6109 21.9378 15.1667 21.9378Z" fill="#baced9"/>
<path d="M3.06582 10.7032C3.19582 10.779 3.33665 10.8115 3.46665 10.8115C3.74832 10.8115 4.01915 10.6707 4.17082 10.3998L4.85332 9.22985L9.31665 11.8082C9.43582 11.884 9.57665 11.9165 9.71749 11.9165C9.99915 11.9165 10.27 11.7757 10.4217 11.5048C10.6492 11.1257 10.5083 10.6273 10.1292 10.3998L5.66582 7.82151L6.33749 6.65151C6.56499 6.26151 6.42415 5.76318 6.04499 5.54651C5.65499 5.31901 5.15665 5.44901 4.93999 5.83901L2.77332 9.58735C2.54582 9.98818 2.67582 10.4757 3.06582 10.7032Z" fill="#baced9"/>
<path d="M22.9341 15.2966C22.5441 15.0691 22.0458 15.1991 21.8291 15.5891L21.1466 16.7591L16.6833 14.1916C16.2933 13.9641 15.795 14.1049 15.5783 14.4841C15.3508 14.8741 15.4917 15.3724 15.8708 15.5891L20.3233 18.1674L19.6516 19.3374C19.4241 19.7274 19.565 20.2258 19.9441 20.4424C20.0741 20.5183 20.215 20.5508 20.345 20.5508C20.6267 20.5508 20.8975 20.4099 21.0491 20.1391L23.2158 16.3908C23.4541 16.0116 23.3241 15.5241 22.9341 15.2966Z" fill="#baced9"/>
<path d="M20.3342 7.82142L15.8709 10.3998C15.4809 10.6273 15.3509 11.1256 15.5784 11.5048C15.73 11.7648 16.0009 11.9164 16.2825 11.9164C16.4234 11.9164 16.5642 11.8839 16.6834 11.8081L21.1359 9.22976L21.8184 10.3998C21.97 10.6598 22.2409 10.8114 22.5225 10.8114C22.6634 10.8114 22.8042 10.7789 22.9234 10.7031C23.3134 10.4756 23.4434 9.97726 23.2159 9.59809L21.0492 5.84976C20.8217 5.45976 20.3234 5.32976 19.9442 5.55726C19.5542 5.78476 19.4242 6.28309 19.6517 6.66226L20.3342 7.82142Z" fill="#baced9"/>
<path d="M5.66582 18.1786L10.1183 15.6003C10.5083 15.3728 10.6383 14.8744 10.4108 14.4953C10.1833 14.1053 9.68499 13.9753 9.30582 14.2028L4.85332 16.7811L4.17082 15.6111C3.94332 15.2211 3.44499 15.0911 3.06582 15.3186C2.67582 15.5461 2.54582 16.0444 2.77332 16.4236L4.93999 20.1719C5.09165 20.4319 5.36249 20.5836 5.64415 20.5836C5.78499 20.5836 5.92582 20.5511 6.04499 20.4753C6.43499 20.2478 6.56499 19.7494 6.33749 19.3703L5.66582 18.1786Z" fill="#baced9"/>
<path d="M16.7917 12.9997C16.7917 13.693 16.6075 14.3322 16.2825 14.8955C15.6217 16.033 14.3975 16.7913 13 16.7913C11.6025 16.7913 10.3784 16.033 9.71754 14.8955C9.39254 14.3322 9.20837 13.693 9.20837 12.9997C9.20837 12.3063 9.39254 11.6672 9.71754 11.1038C10.3784 9.96634 11.6025 9.20801 13 9.20801C14.3975 9.20801 15.6217 9.96634 16.2825 11.1038C16.6075 11.6672 16.7917 12.3063 16.7917 12.9997Z" fill="#baced9"/>
</svg>
