<svg width="68" height="66" viewBox="0 0 68 66" fill="none" xmlns="http://www.w3.org/2000/svg">
<path fill-rule="evenodd" clip-rule="evenodd" d="M55.0952 65.4147H13.7828C12.7795 65.4147 11.8173 65.0161 11.1078 64.3066C10.3983 63.5972 9.99976 62.635 9.99976 61.6316V9.85143C9.99976 8.8481 10.3983 7.88588 11.1078 7.17641C11.8173 6.46695 12.7795 6.06836 13.7828 6.06836H55.0965C56.0998 6.06836 57.0621 6.46695 57.7715 7.17641C58.481 7.88588 58.8796 8.8481 58.8796 9.85143V61.6367C58.8782 62.6393 58.4789 63.6005 57.7693 64.3089C57.0597 65.0173 56.0979 65.415 55.0952 65.4147Z" fill="url(#paint0_linear_35575_10037)"/>
<path d="M34.887 12.083V64.2819C34.887 64.9225 34.6348 65.442 34.3284 65.442C34.022 65.442 33.7698 64.9225 33.7698 64.2819V12.083" fill="url(#paint1_linear_35575_10037)"/>
<path d="M34.2982 13.6387L48.1202 1.42188H20.4761L34.2982 13.6387Z" fill="url(#paint2_linear_35575_10037)"/>
<path d="M23.5481 2.58789L34.297 12.0884L45.046 2.58789H23.5481Z" fill="url(#paint3_linear_35575_10037)"/>
<g filter="url(#filter0_d_35575_10037)">
<path d="M32.4638 10.6821L27.9405 17.4563L16.2622 7.63545L20.5144 1.4375L32.4638 10.6821Z" fill="url(#paint4_linear_35575_10037)"/>
</g>
<g filter="url(#filter1_d_35575_10037)">
<path d="M35.6989 30.8292C35.3206 30.0984 34.4215 29.8127 33.6908 30.191C32.9601 30.5693 32.6743 31.4684 33.0526 32.1991C33.4309 32.9298 34.33 33.2155 35.0607 32.8372C35.7914 32.459 36.0771 31.5599 35.6989 30.8292Z" fill="white"/>
</g>
<g filter="url(#filter2_d_35575_10037)">
<path d="M35.6989 40.7403C35.3206 40.0096 34.4215 39.7239 33.6908 40.1021C32.9601 40.4804 32.6743 41.3795 33.0526 42.1102C33.4309 42.841 34.33 43.1267 35.0607 42.7484C35.7914 42.3701 36.0771 41.471 35.6989 40.7403Z" fill="white"/>
</g>
<g filter="url(#filter3_d_35575_10037)">
<path d="M35.6989 52.5167C35.3206 51.7859 34.4215 51.5002 33.6908 51.8785C32.9601 52.2568 32.6743 53.1559 33.0526 53.8866C33.4309 54.6173 34.33 54.903 35.0607 54.5247C35.7914 54.1465 36.0771 53.2474 35.6989 52.5167Z" fill="white"/>
</g>
<g filter="url(#filter4_d_35575_10037)">
<path d="M35.5607 18.5938C35.1824 17.8631 34.2833 17.5774 33.5526 17.9557C32.8219 18.334 32.5362 19.233 32.9144 19.9637C33.2927 20.6945 34.1918 20.9802 34.9225 20.6019C35.6533 20.2236 35.939 19.3246 35.5607 18.5938Z" fill="white"/>
</g>
<g filter="url(#filter5_d_35575_10037)">
<path d="M48.0948 1.43066L52.4756 7.53906L41.0003 17.6008L36.3345 10.9174L48.0948 1.43066Z" fill="url(#paint5_linear_35575_10037)"/>
</g>
<g filter="url(#filter6_d_35575_10037)">
<path d="M18.7436 19.4535H18.7058C17.7302 19.4535 16.7946 19.066 16.1047 18.3762C15.4149 17.6863 15.0273 16.7507 15.0273 15.7751C15.0273 14.7996 15.4149 13.8639 16.1047 13.1741C16.7946 12.4843 17.7302 12.0967 18.7058 12.0967C18.8234 12.0967 18.9395 12.1022 19.0538 12.1131C19.3393 11.513 19.7807 11.0006 20.3318 10.6292C20.8829 10.2578 21.5235 10.0411 22.1869 10.0017C22.8503 9.96224 23.5121 10.1016 24.1033 10.4051C24.6945 10.7086 25.1935 11.1652 25.5481 11.7272C26.3479 11.165 27.3383 10.9436 28.3014 11.1116C29.2645 11.2797 30.1214 11.8234 30.6836 12.6232C31.2458 13.423 31.4672 14.4134 31.2992 15.3765C31.1312 16.3396 30.5875 17.1965 29.7876 17.7587C29.6838 18.6608 29.2513 19.493 28.5728 20.0964C27.8942 20.6998 27.0172 21.0321 26.1092 21.0298C25.8979 21.03 25.687 21.0122 25.4787 20.9769C25.0601 21.5937 24.4654 22.0701 23.772 22.3439C23.0786 22.6177 22.3188 22.6762 21.5917 22.5118C20.8646 22.3473 20.2039 21.9675 19.6959 21.422C19.1878 20.8765 18.856 20.1905 18.7436 19.4535Z" fill="white"/>
</g>
<g filter="url(#filter7_d_35575_10037)">
<path d="M57.8391 33.2512L57.8746 33.2382C58.7914 32.9046 59.8031 32.9487 60.6873 33.361C61.5714 33.7733 62.2556 34.52 62.5893 35.4367C62.9229 36.3535 62.8788 37.3652 62.4665 38.2494C62.0542 39.1335 61.3075 39.8177 60.3908 40.1514C60.2802 40.1916 60.1693 40.2262 60.0581 40.255C59.995 40.9166 59.7556 41.5491 59.3648 42.0866C58.9739 42.6241 58.446 43.0468 57.8361 43.3107C57.2262 43.5747 56.5567 43.6701 55.8973 43.5871C55.2379 43.5041 54.6129 43.2457 54.0875 42.8388C53.5282 43.6406 52.6733 44.1875 51.7108 44.359C50.7483 44.5305 49.7571 44.3126 48.9552 43.7533C48.1534 43.194 47.6066 42.3391 47.4351 41.3766C47.2635 40.4141 47.4814 39.4229 48.0407 38.6211C47.8298 37.7379 47.9516 36.808 48.3828 36.0089C48.814 35.2098 49.5245 34.5976 50.3785 34.2892C50.577 34.2168 50.7813 34.1613 50.9891 34.1233C51.1715 33.4005 51.5674 32.7494 52.1253 32.2549C52.6832 31.7605 53.3772 31.4457 54.1167 31.3515C54.8562 31.2574 55.6069 31.3883 56.2709 31.7271C56.9349 32.066 57.4814 32.5971 57.8391 33.2512Z" fill="white"/>
</g>
<g filter="url(#filter8_d_35575_10037)">
<path d="M18.4796 40.7603L18.5133 40.7773C19.3815 41.2163 20.0398 41.9822 20.3434 42.9066C20.6469 43.831 20.5708 44.8381 20.1318 45.7064C19.6928 46.5746 18.9268 47.2329 18.0024 47.5365C17.0781 47.84 16.071 47.7639 15.2027 47.3249C15.098 47.2719 14.9972 47.2148 14.9003 47.1537C14.3761 47.5592 13.7527 47.8167 13.0951 47.8993C12.4375 47.9818 11.7698 47.8864 11.1617 47.6229C10.5535 47.3595 10.0272 46.9377 9.63761 46.4015C9.24802 45.8653 9.00945 45.2344 8.94678 44.5747C7.98194 44.7151 7.00084 44.4665 6.21929 43.8836C5.43775 43.3006 4.91978 42.4311 4.77935 41.4663C4.63891 40.5014 4.8875 39.5203 5.47043 38.7388C6.05337 37.9572 6.9229 37.4393 7.88773 37.2988C8.38608 36.5427 9.14547 35.9967 10.0209 35.765C10.8963 35.5333 11.8264 35.6322 12.6335 36.0428C12.8216 36.1378 13.0014 36.2485 13.1708 36.3737C13.8209 36.0131 14.5647 35.8567 15.305 35.925C16.0453 35.9934 16.7478 36.2832 17.3209 36.7568C17.8941 37.2304 18.3112 37.8656 18.5178 38.5798C18.7245 39.2939 18.7112 40.0538 18.4796 40.7603Z" fill="white"/>
</g>
<defs>
<filter id="filter0_d_35575_10037" x="14.5755" y="0.594127" width="21.2619" height="21.0788" filterUnits="userSpaceOnUse" color-interpolation-filters="sRGB">
<feFlood flood-opacity="0" result="BackgroundImageFix"/>
<feColorMatrix in="SourceAlpha" type="matrix" values="0 0 0 0 0 0 0 0 0 0 0 0 0 0 0 0 0 0 127 0" result="hardAlpha"/>
<feOffset dx="0.843373" dy="1.68675"/>
<feGaussianBlur stdDeviation="1.26506"/>
<feColorMatrix type="matrix" values="0 0 0 0 0.00392157 0 0 0 0 0.133333 0 0 0 0 0.239216 0 0 0 0.271 0"/>
<feBlend mode="normal" in2="BackgroundImageFix" result="effect1_dropShadow_35575_10037"/>
<feBlend mode="normal" in="SourceGraphic" in2="effect1_dropShadow_35575_10037" result="shape"/>
</filter>
<filter id="filter1_d_35575_10037" x="32.4638" y="29.6018" width="5.51059" height="5.51059" filterUnits="userSpaceOnUse" color-interpolation-filters="sRGB">
<feFlood flood-opacity="0" result="BackgroundImageFix"/>
<feColorMatrix in="SourceAlpha" type="matrix" values="0 0 0 0 0 0 0 0 0 0 0 0 0 0 0 0 0 0 127 0" result="hardAlpha"/>
<feOffset dx="0.843373" dy="0.843373"/>
<feGaussianBlur stdDeviation="0.63253"/>
<feColorMatrix type="matrix" values="0 0 0 0 0.00784314 0 0 0 0 0.141176 0 0 0 0 0.376471 0 0 0 0.271 0"/>
<feBlend mode="normal" in2="BackgroundImageFix" result="effect1_dropShadow_35575_10037"/>
<feBlend mode="normal" in="SourceGraphic" in2="effect1_dropShadow_35575_10037" result="shape"/>
</filter>
<filter id="filter2_d_35575_10037" x="32.4638" y="39.5129" width="5.51059" height="5.51059" filterUnits="userSpaceOnUse" color-interpolation-filters="sRGB">
<feFlood flood-opacity="0" result="BackgroundImageFix"/>
<feColorMatrix in="SourceAlpha" type="matrix" values="0 0 0 0 0 0 0 0 0 0 0 0 0 0 0 0 0 0 127 0" result="hardAlpha"/>
<feOffset dx="0.843373" dy="0.843373"/>
<feGaussianBlur stdDeviation="0.63253"/>
<feColorMatrix type="matrix" values="0 0 0 0 0.00784314 0 0 0 0 0.141176 0 0 0 0 0.376471 0 0 0 0.271 0"/>
<feBlend mode="normal" in2="BackgroundImageFix" result="effect1_dropShadow_35575_10037"/>
<feBlend mode="normal" in="SourceGraphic" in2="effect1_dropShadow_35575_10037" result="shape"/>
</filter>
<filter id="filter3_d_35575_10037" x="32.4638" y="51.2893" width="5.51059" height="5.51059" filterUnits="userSpaceOnUse" color-interpolation-filters="sRGB">
<feFlood flood-opacity="0" result="BackgroundImageFix"/>
<feColorMatrix in="SourceAlpha" type="matrix" values="0 0 0 0 0 0 0 0 0 0 0 0 0 0 0 0 0 0 127 0" result="hardAlpha"/>
<feOffset dx="0.843373" dy="0.843373"/>
<feGaussianBlur stdDeviation="0.63253"/>
<feColorMatrix type="matrix" values="0 0 0 0 0.00784314 0 0 0 0 0.141176 0 0 0 0 0.376471 0 0 0 0.271 0"/>
<feBlend mode="normal" in2="BackgroundImageFix" result="effect1_dropShadow_35575_10037"/>
<feBlend mode="normal" in="SourceGraphic" in2="effect1_dropShadow_35575_10037" result="shape"/>
</filter>
<filter id="filter4_d_35575_10037" x="32.3256" y="17.3664" width="5.51059" height="5.51059" filterUnits="userSpaceOnUse" color-interpolation-filters="sRGB">
<feFlood flood-opacity="0" result="BackgroundImageFix"/>
<feColorMatrix in="SourceAlpha" type="matrix" values="0 0 0 0 0 0 0 0 0 0 0 0 0 0 0 0 0 0 127 0" result="hardAlpha"/>
<feOffset dx="0.843373" dy="0.843373"/>
<feGaussianBlur stdDeviation="0.63253"/>
<feColorMatrix type="matrix" values="0 0 0 0 0.00784314 0 0 0 0 0.141176 0 0 0 0 0.376471 0 0 0 0.271 0"/>
<feBlend mode="normal" in2="BackgroundImageFix" result="effect1_dropShadow_35575_10037"/>
<feBlend mode="normal" in="SourceGraphic" in2="effect1_dropShadow_35575_10037" result="shape"/>
</filter>
<filter id="filter5_d_35575_10037" x="34.6477" y="0.587291" width="21.2014" height="21.2302" filterUnits="userSpaceOnUse" color-interpolation-filters="sRGB">
<feFlood flood-opacity="0" result="BackgroundImageFix"/>
<feColorMatrix in="SourceAlpha" type="matrix" values="0 0 0 0 0 0 0 0 0 0 0 0 0 0 0 0 0 0 127 0" result="hardAlpha"/>
<feOffset dx="0.843373" dy="1.68675"/>
<feGaussianBlur stdDeviation="1.26506"/>
<feColorMatrix type="matrix" values="0 0 0 0 0.00392157 0 0 0 0 0.133333 0 0 0 0 0.239216 0 0 0 0.271 0"/>
<feBlend mode="normal" in2="BackgroundImageFix" result="effect1_dropShadow_35575_10037"/>
<feBlend mode="normal" in="SourceGraphic" in2="effect1_dropShadow_35575_10037" result="shape"/>
</filter>
<filter id="filter6_d_35575_10037" x="10.8105" y="4.0915" width="31.5074" height="27.7891" filterUnits="userSpaceOnUse" color-interpolation-filters="sRGB">
<feFlood flood-opacity="0" result="BackgroundImageFix"/>
<feColorMatrix in="SourceAlpha" type="matrix" values="0 0 0 0 0 0 0 0 0 0 0 0 0 0 0 0 0 0 127 0" result="hardAlpha"/>
<feOffset dx="3.37349" dy="1.68675"/>
<feGaussianBlur stdDeviation="3.79518"/>
<feColorMatrix type="matrix" values="0 0 0 0 0 0 0 0 0 0 0 0 0 0 0 0 0 0 0.412 0"/>
<feBlend mode="normal" in2="BackgroundImageFix" result="effect1_dropShadow_35575_10037"/>
<feBlend mode="normal" in="SourceGraphic" in2="effect1_dropShadow_35575_10037" result="shape"/>
</filter>
<filter id="filter7_d_35575_10037" x="38.1008" y="27.1054" width="28.9271" height="26.5877" filterUnits="userSpaceOnUse" color-interpolation-filters="sRGB">
<feFlood flood-opacity="0" result="BackgroundImageFix"/>
<feColorMatrix in="SourceAlpha" type="matrix" values="0 0 0 0 0 0 0 0 0 0 0 0 0 0 0 0 0 0 127 0" result="hardAlpha"/>
<feOffset dx="-2.53012" dy="2.53012"/>
<feGaussianBlur stdDeviation="3.37349"/>
<feColorMatrix type="matrix" values="0 0 0 0 0 0 0 0 0 0 0 0 0 0 0 0 0 0 0.271 0"/>
<feBlend mode="normal" in2="BackgroundImageFix" result="effect1_dropShadow_35575_10037"/>
<feBlend mode="normal" in="SourceGraphic" in2="effect1_dropShadow_35575_10037" result="shape"/>
</filter>
<filter id="filter8_d_35575_10037" x="0.5241" y="29.739" width="30.9661" height="27.4659" filterUnits="userSpaceOnUse" color-interpolation-filters="sRGB">
<feFlood flood-opacity="0" result="BackgroundImageFix"/>
<feColorMatrix in="SourceAlpha" type="matrix" values="0 0 0 0 0 0 0 0 0 0 0 0 0 0 0 0 0 0 127 0" result="hardAlpha"/>
<feOffset dx="3.37349" dy="1.68675"/>
<feGaussianBlur stdDeviation="3.79518"/>
<feColorMatrix type="matrix" values="0 0 0 0 0 0 0 0 0 0 0 0 0 0 0 0 0 0 0.412 0"/>
<feBlend mode="normal" in2="BackgroundImageFix" result="effect1_dropShadow_35575_10037"/>
<feBlend mode="normal" in="SourceGraphic" in2="effect1_dropShadow_35575_10037" result="shape"/>
</filter>
<linearGradient id="paint0_linear_35575_10037" x1="34.4397" y1="68.2633" x2="34.4397" y2="4.16928" gradientUnits="userSpaceOnUse">
<stop stop-color="#019EED"/>
<stop offset="1" stop-color="#2EB3F5"/>
</linearGradient>
<linearGradient id="paint1_linear_35575_10037" x1="33.7698" y1="38.7625" x2="34.887" y2="38.7625" gradientUnits="userSpaceOnUse">
<stop stop-color="#019EED"/>
<stop offset="1" stop-color="#2EB3F5"/>
</linearGradient>
<linearGradient id="paint2_linear_35575_10037" x1="34.2152" y1="-5.92044" x2="34.2746" y2="20.6151" gradientUnits="userSpaceOnUse">
<stop stop-color="#2AD2FF"/>
<stop offset="1" stop-color="#72E3C6"/>
</linearGradient>
<linearGradient id="paint3_linear_35575_10037" x1="23.5481" y1="7.33817" x2="45.046" y2="7.33817" gradientUnits="userSpaceOnUse">
<stop stop-color="#019EED"/>
<stop offset="1" stop-color="#2EB3F5"/>
</linearGradient>
<linearGradient id="paint4_linear_35575_10037" x1="24.1848" y1="-5.80299" x2="24.4857" y2="20.7242" gradientUnits="userSpaceOnUse">
<stop stop-color="#2AD2FF"/>
<stop offset="1" stop-color="#72E3C6"/>
</linearGradient>
<linearGradient id="paint5_linear_35575_10037" x1="4.42345" y1="-5.7327" x2="4.74744" y2="20.8024" gradientUnits="userSpaceOnUse">
<stop stop-color="#2AD2FF"/>
<stop offset="1" stop-color="#72E3C6"/>
</linearGradient>
</defs>
</svg>
