<svg width="381" height="200" viewBox="0 0 381 200" fill="none" xmlns="http://www.w3.org/2000/svg">
<g clip-path="url(#clip0_35575_10131)">
<path opacity="0.24" d="M346.495 35.7911C334.545 35.7911 324.327 43.0211 319.965 53.3583C315.305 50.0719 309.628 48.1598 303.474 48.1598C291.702 48.1598 281.604 55.2106 277.123 65.3087C269.893 53.7168 256.986 46.0088 242.347 46.0088C222.27 46.0088 205.6 60.409 202.014 79.4102C195.8 69.5511 184.806 62.9784 172.258 62.9784C164.729 62.9784 157.798 65.3685 152.062 69.3719C144.055 44.3357 120.572 26.2308 92.9069 26.2308C74.6825 26.2308 58.3104 34.0583 46.9575 46.5465C43.3723 31.728 29.9879 20.6738 14.034 20.6738C-4.66841 20.6738 -19.8455 35.8509 -19.8455 54.5533C-19.8455 70.1486 -9.32908 83.2344 4.95169 87.178C4.47368 89.2693 4.17492 91.4204 4.17492 93.691C4.17492 109.167 16.7229 121.655 32.1389 121.655C34.768 121.655 37.3374 121.297 39.7275 120.579C50.6024 138.505 70.3206 150.456 92.8472 150.456C115.135 150.456 134.674 138.744 145.668 121.117C152.121 128.527 161.622 133.247 172.258 133.247C188.69 133.247 202.492 122.014 206.317 106.777C213.308 119.504 226.812 128.108 242.347 128.108C261.767 128.108 278.019 114.604 282.321 96.4993C287.579 102.236 295.168 105.821 303.533 105.821C315.484 105.821 325.701 98.5907 330.063 88.2535C334.724 91.5399 340.4 93.452 346.555 93.452C362.449 93.452 375.355 80.5455 375.355 64.6514C375.355 48.6976 362.449 35.7911 346.495 35.7911Z" fill="#0DCFFC"/>
<path opacity="0.42" d="M-43.3279 18.7622C-28.5692 18.7622 -15.9017 27.725 -10.524 40.4522C-4.72803 36.4488 2.26297 34.0587 9.85149 34.0587C24.3713 34.0587 36.8595 42.7826 42.4164 55.2708C51.3793 40.9302 67.3331 31.3699 85.4978 31.3699C110.295 31.3699 130.969 49.176 135.391 72.6587C143.099 60.4095 156.663 52.2832 172.198 52.2832C181.52 52.2832 190.124 55.211 197.175 60.1704C207.093 29.2188 236.133 6.81175 270.371 6.81175C292.898 6.81175 313.154 16.4916 327.195 31.9077C331.677 13.6235 348.228 0 367.946 0C391.07 0 409.833 18.7622 409.833 41.8863C409.833 61.1265 396.866 77.3791 379.12 82.2788C379.718 84.8481 380.076 87.5369 380.076 90.3453C380.076 109.466 364.6 124.942 345.48 124.942C342.193 124.942 339.026 124.464 336.039 123.627C322.535 145.795 298.156 160.614 270.311 160.614C242.766 160.614 218.566 146.094 205.002 124.285C197.055 133.486 185.284 139.282 172.138 139.282C151.823 139.282 134.793 125.36 130.013 106.538C121.409 122.253 104.678 132.949 85.438 132.949C61.4176 132.949 41.2811 116.278 36.023 93.8707C29.51 100.981 20.1886 105.403 9.79175 105.403C-4.96704 105.403 -17.6345 96.44 -23.0122 83.7128C-28.8082 87.776 -35.7992 90.1063 -43.3877 90.1063C-63.0462 90.1063 -79 74.0927 -79 54.4342C-79 34.716 -63.0462 18.7622 -43.3279 18.7622Z" fill="#0DCFFC"/>
<path d="M460.861 113.469C460.861 113.469 341.715 43.6788 234.161 91.4208L90.3376 153.922L61.4773 169.636C61.4773 169.636 68.289 174.895 75.6386 176.986C82.9881 179.077 121.827 176.448 135.45 178.539C149.074 180.631 203.15 176.986 236.73 184.813C270.311 192.701 318.053 188.996 342.193 192.163C366.333 195.33 437.737 187.98 439.29 186.905C440.844 185.829 460.263 169.039 460.801 162.227C461.339 155.415 460.861 113.469 460.861 113.469Z" fill="#00B6EB"/>
<path d="M-36.2174 117.712C-36.2174 117.712 85.9758 46.1285 196.398 95.1253L343.926 159.18L373.563 175.313C373.563 175.313 366.572 180.69 359.043 182.841C351.514 184.993 311.66 182.304 297.678 184.455C283.696 186.606 228.246 182.841 193.769 190.908C159.292 198.975 110.295 195.21 85.5576 198.437C60.8202 201.663 -12.436 194.135 -14.0493 193.059C-15.6626 191.984 -35.5601 174.775 -36.0979 167.724C-36.7552 160.793 -36.2174 117.712 -36.2174 117.712Z" fill="#00ADE2"/>
<path d="M43.4919 17.8059C41.9981 16.0731 38.3532 14.4598 38.174 14.4001C37.8752 14.2806 37.5764 14.4001 37.4569 14.6988C37.4569 14.7586 37.4569 14.7586 37.3972 14.8183C37.2777 15.5353 35.5449 16.1926 33.7523 15.8341C31.9597 15.4756 30.5854 14.2806 30.7647 13.5635C30.8244 13.3843 30.7647 13.205 30.6452 13.0855C30.5257 12.966 30.3464 12.9062 30.2269 12.9062C30.0477 12.9062 26.104 13.0855 24.0127 14.1013C21.9214 15.1768 20.0093 22.1081 19.83 22.8849C19.7703 23.1239 19.83 23.3629 20.0093 23.4824C21.2043 24.3189 22.5189 24.9762 23.8932 25.3945L21.6823 37.0461C21.6226 37.2254 21.7421 37.4644 21.8616 37.5839C21.9214 37.6437 23.8932 39.1972 29.0916 40.213C34.2901 41.2288 36.6801 40.5118 36.7399 40.452C36.9192 40.3923 37.0984 40.213 37.0984 40.0337L39.3092 28.3821C40.7433 28.5016 42.2371 28.3821 43.6114 28.0236C43.8504 27.9638 43.9699 27.7845 44.0297 27.5455C44.2089 26.7688 45.0455 19.6582 43.4919 17.8059Z" fill="#00B6EB"/>
<path d="M38.4131 14.579C38.2936 14.4595 38.1741 14.3998 37.9948 14.3998C36.6803 14.3998 35.4255 14.34 34.1109 14.2205C32.8561 13.862 31.6611 13.4437 30.466 12.9657C30.2868 12.906 30.1075 12.906 29.988 12.9657C29.8685 13.0255 29.749 13.2047 29.6892 13.3242C29.3905 14.9973 31.4221 16.5508 33.5731 16.9691C35.7242 17.3874 38.2338 16.7301 38.5326 15.057C38.5326 14.8778 38.4728 14.6985 38.4131 14.579Z" fill="#0296C9"/>
<path d="M58.191 21.2119C58.191 21.2119 55.1437 23.9605 52.4548 31.31C54.7852 32.8636 57.713 33.4014 60.4616 32.8636L58.191 21.2119Z" fill="#00B6EB"/>
<path d="M81.2554 22.4072C81.2554 22.4072 84.004 25.4546 85.9161 33.0431C83.4065 34.3577 80.4786 34.5967 77.7898 33.7601L81.2554 22.4072Z" fill="#00B6EB"/>
<path d="M85.8563 33.043C83.3467 34.3576 80.4188 34.5966 77.73 33.7601L78.3873 31.6687C80.7176 32.1468 83.1077 31.7882 85.2588 30.7725C85.438 31.4895 85.677 32.2663 85.8563 33.043Z" fill="#0296C9"/>
<path d="M60.4616 32.8638C57.713 33.4016 54.8449 32.8638 52.4548 31.3103C52.7536 30.5335 53.0524 29.8165 53.2914 29.1592C55.3229 30.414 57.6533 30.9517 60.0433 30.7725L60.4616 32.8638Z" fill="#0296C9"/>
<path d="M76.3558 20.1963C78.0288 20.7939 79.6421 21.5706 81.1957 22.4072C80.4189 25.813 77.7301 33.7601 77.7301 33.7601L77.4313 49.8932C75.0412 50.909 72.7109 51.387 68.11 51.148C63.509 50.909 61.2385 50.1919 58.9679 48.9371L60.4019 32.8638C60.4019 32.8638 58.5496 24.6777 58.1313 21.2121C59.7447 20.4951 61.4775 19.9573 63.2103 19.5391L76.3558 20.1963Z" fill="#00B6EB"/>
<path d="M69.2453 30.4143C68.9465 30.4143 68.7075 30.1156 68.7075 29.8168L69.066 23.4831C69.066 23.1843 69.3648 22.9453 69.6636 22.9453C69.9623 22.9453 70.2013 23.2441 70.2013 23.5428L69.8428 29.8766C69.8428 30.2351 69.6038 30.4741 69.2453 30.4143Z" fill="#0296C9"/>
<path d="M77.491 49.9532C75.1009 50.969 72.7706 51.447 68.1697 51.208C63.5688 50.969 61.2982 50.2519 59.0276 48.9971L59.2068 46.7266C61.4177 47.9814 63.6883 48.6386 68.2294 48.8776C72.7706 49.1167 75.1009 48.6386 77.4313 47.6826L77.491 49.9532Z" fill="#00B6EB"/>
<path d="M73.3681 21.152C72.1731 22.7653 69.6037 23.4824 69.6037 23.4824C69.6037 23.4824 67.0942 22.5263 66.0784 20.7338C68.5282 20.435 71.0378 20.6143 73.3681 21.152Z" fill="#00B6EB"/>
<path d="M77.252 21.6305C77.252 21.6305 75.8777 25.5742 71.8146 26.5302C71.8146 26.5302 71.9341 24.7974 69.6635 23.5426C69.6635 23.5426 72.2328 22.8256 73.4279 21.2123C71.0378 20.6147 68.5879 20.4952 66.1979 20.8538C66.0784 20.8538 67.3332 22.6463 69.6635 23.6024C67.2734 24.6181 67.2136 26.351 67.2136 26.351C63.27 24.9767 62.314 20.9135 62.314 20.9135L64.4053 18.0454C64.6443 17.7466 65.0028 17.5674 65.3613 17.5674L74.5034 18.0454C74.8619 18.0454 75.2204 18.2844 75.4594 18.5832L77.252 21.6305Z" fill="#0296C9"/>
<path d="M96.6716 30.5931C96.6716 30.5931 96.9106 32.5649 96.9703 34.1782C97.2093 34.1782 97.5081 34.2977 97.6874 34.5367C97.9861 34.7757 99.0616 35.0147 99.3006 35.0147C99.4202 35.0147 100.018 35.1343 101.033 35.194C103.364 35.3135 105.634 34.955 106.232 34.5367C106.411 34.3575 106.71 34.238 106.949 34.1782C107.009 32.5649 107.248 30.5931 107.248 30.5931C107.666 29.5773 107.785 28.3225 107.785 27.1872C107.785 22.1083 107.905 21.929 107.367 21.5108C106.77 21.0327 105.814 21.212 105.515 21.9888C105.336 22.3473 105.455 22.5265 105.395 24.3191C105.395 25.1556 104.917 25.4544 104.798 25.5142C102.707 26.2909 102.826 27.9042 101.87 27.7847C101.093 27.6652 101.093 26.2312 99.1214 25.5142C99.0019 25.4544 98.5239 25.1556 98.5239 24.3191C98.5239 22.5265 98.5836 22.3473 98.4044 21.9888C97.9861 21.0327 96.6118 21.0327 96.2533 21.9888C96.1338 22.2875 96.1338 22.0485 96.1338 27.247C96.1338 28.3225 96.313 29.5773 96.6716 30.5931Z" fill="#00B6EB"/>
<path d="M117.884 55.8687L107.785 35.792C107.666 35.9115 107.427 36.0908 107.248 36.2103C105.097 37.4651 97.9861 37.5846 96.074 35.792L85.9161 55.8687C85.6174 56.526 85.7966 57.243 86.3344 57.721C90.039 60.5294 93.6839 58.2588 96.1935 60.6489C99.3604 63.756 104.499 63.756 107.726 60.5891C109.996 58.3186 113.761 60.4696 117.465 57.721C118.063 57.243 118.242 56.4662 117.884 55.8687Z" fill="#00B6EB"/>
<g opacity="0.4">
<path opacity="0.4" d="M95.6558 60.1705L99.1812 42.2448C99.2409 41.8863 99.0019 41.5875 98.7032 41.5278C98.3446 41.468 98.0459 41.707 97.9861 42.0058L94.5205 59.6327C94.879 59.7522 95.2973 59.9314 95.6558 60.1705Z" fill="#1976D2"/>
<path opacity="0.4" d="M26.7017 25.4545L28.1358 19.4792C28.1358 19.3597 28.076 19.2402 27.9565 19.2402C27.837 19.2402 27.6577 19.3 27.6577 19.4195L26.2834 25.2752C26.403 25.2752 26.5822 25.335 26.7017 25.4545Z" fill="#1976D2"/>
<path opacity="0.4" d="M105.097 41.4681C104.738 41.5279 104.559 41.8864 104.619 42.1852L108.144 60.1706C108.502 59.9316 108.921 59.7523 109.339 59.6328L105.873 42.0059C105.814 41.6474 105.455 41.4084 105.097 41.4681Z" fill="#1976D2"/>
</g>
<path d="M101.93 37.3455C100.316 37.3455 97.1494 37.1065 96.0141 35.9115C95.5361 35.4334 95.5959 34.7164 96.0739 34.2384C96.5519 33.7604 97.2689 33.8201 97.7469 34.2384C98.0457 34.4774 99.1212 34.7164 99.3602 34.7164C99.4797 34.7164 100.077 34.8359 101.093 34.8957C103.423 35.0152 105.694 34.6567 106.291 34.2384C106.77 33.7604 107.487 33.7604 107.965 34.2384C108.562 34.8359 108.443 35.8517 107.367 36.3895C105.634 37.4053 101.87 37.3455 101.93 37.3455Z" fill="#0296C9"/>
<path d="M99.0017 36.8076C98.5237 36.3295 98.5835 35.6125 99.0615 35.1345C99.2407 34.9552 99.42 34.8955 99.659 34.8357C99.4797 34.8357 99.42 34.776 99.3602 34.776C99.181 34.7162 98.0457 34.537 97.7469 34.298C97.2689 33.8199 96.5519 33.8199 96.0739 34.298C95.5959 34.776 95.5959 35.493 96.0141 35.971C96.7311 36.6881 98.1054 37.0466 99.5395 37.2258C99.3005 37.1063 99.1212 36.9868 99.0017 36.8076Z" fill="#0296C9"/>
<path d="M107.307 21.5109C106.531 20.9134 105.395 21.3914 105.395 22.4072C105.336 23.9608 105.515 24.4985 105.216 24.9765H107.726C107.726 22.4072 107.905 21.9889 107.307 21.5109Z" fill="#00B6EB"/>
<path d="M96.1935 21.9886C96.0142 22.3471 96.1337 22.4667 96.074 25.036H98.5836C98.3446 24.4982 98.4641 24.0202 98.4043 22.4667C98.4641 21.1521 96.7313 20.7936 96.1935 21.9886Z" fill="#00B6EB"/>
<path opacity="0.18" d="M39.6081 28.4421L40.3849 22.3474C40.3849 22.2279 40.3252 22.1084 40.1459 22.1084C40.0264 22.1084 39.9069 22.1682 39.8472 22.2877L39.1301 28.2629C39.2496 28.3226 39.4289 28.3824 39.6081 28.4421Z" fill="#1976D2"/>
<path d="M24.5505 81.2036C24.5505 85.3265 26.8809 88.7323 29.8087 88.7323C32.7366 88.7323 35.0669 85.3862 35.0669 81.2036C35.0669 77.0209 32.7366 60.5293 29.8087 60.5293C26.8809 60.5293 24.5505 77.0209 24.5505 81.2036Z" fill="#00ADE2"/>
<path d="M29.0918 93.8714H30.5856L30.1076 88.3145H29.6296L29.0918 93.8714Z" fill="#66CEEE"/>
<path d="M30.1074 88.3141L29.9879 64.3535L29.6294 88.3141H30.1074Z" fill="#66CEEE"/>
<path d="M29.6891 86.1628L25.865 80.7852L29.8684 85.8043L29.6891 86.1628Z" fill="#66CEEE"/>
<path d="M30.0479 82.9361L33.8122 78.2754L30.0479 83.3543V82.9361Z" fill="#66CEEE"/>
<path d="M29.9283 78.4553L27.4187 72.3008L30.0478 78.1565L29.9283 78.4553Z" fill="#66CEEE"/>
<path d="M29.9282 74.0926L31.9 69.0137L29.9282 73.6146V74.0926Z" fill="#66CEEE"/>
<path d="M18.874 84.6689C18.874 87.6565 20.6068 90.1064 22.6982 90.1064C24.7895 90.1064 26.5223 87.6565 26.5223 84.6689C26.5223 81.6813 24.7895 69.6711 22.6982 69.6711C20.6068 69.6114 18.874 81.6216 18.874 84.6689Z" fill="#00B6EB"/>
<path d="M22.1604 93.8708H23.2359L22.9372 89.8076H22.5787L22.1604 93.8708Z" fill="#66CEEE"/>
<path d="M22.9371 89.8078L22.8176 72.4199L22.5786 89.8078H22.9371Z" fill="#66CEEE"/>
<path d="M22.5787 88.2542L19.8301 84.3105L22.7579 87.9554L22.5787 88.2542Z" fill="#66CEEE"/>
<path d="M22.8774 85.9235L25.6261 82.5176L22.8774 86.2222V85.9235Z" fill="#66CEEE"/>
<path d="M22.7579 82.6375L20.9653 78.2158L22.8774 82.3985L22.7579 82.6375Z" fill="#66CEEE"/>
<path d="M22.8176 79.4701L24.1919 75.8252L22.8176 79.1116V79.4701Z" fill="#66CEEE"/>
<path d="M333.589 58.7364C333.589 65.1299 329.944 70.2686 325.462 70.2686C320.981 70.2686 317.336 65.0701 317.336 58.7364C317.336 52.4027 320.981 26.9482 325.462 26.9482C329.944 26.9482 333.589 52.3429 333.589 58.7364Z" fill="#00ADE2"/>
<path d="M326.538 78.2155H324.327L324.984 69.6709H325.761L326.538 78.2155Z" fill="#66CEEE"/>
<path d="M324.984 69.6708L325.223 32.8037L325.761 69.6708H324.984Z" fill="#66CEEE"/>
<path d="M325.642 66.3249L331.557 58.0791L325.343 65.7871L325.642 66.3249Z" fill="#66CEEE"/>
<path d="M325.104 61.4253L319.308 54.1953L325.104 62.0826V61.4253Z" fill="#66CEEE"/>
<path d="M325.343 54.5533L329.167 45.0527L325.164 54.0156L325.343 54.5533Z" fill="#66CEEE"/>
<path d="M325.283 47.802L322.296 40.0342L325.283 47.0252V47.802Z" fill="#66CEEE"/>
<path d="M342.313 64.0539C342.313 68.7146 339.684 72.479 336.397 72.479C333.171 72.479 330.482 68.7146 330.482 64.0539C330.482 59.3933 333.111 40.9298 336.397 40.9298C339.684 40.8701 342.313 59.3933 342.313 64.0539Z" fill="#00B6EB"/>
<path d="M337.234 78.2152H335.62L336.098 72.001H336.636L337.234 78.2152Z" fill="#66CEEE"/>
<path d="M336.098 72.0006L336.278 45.1719L336.636 72.0006H336.098Z" fill="#66CEEE"/>
<path d="M336.576 69.6113L340.879 63.5166L336.337 69.1931L336.576 69.6113Z" fill="#66CEEE"/>
<path d="M336.158 66.0258L331.976 60.7676L336.158 66.444V66.0258Z" fill="#66CEEE"/>
<path d="M336.337 61.0065L339.146 54.0752L336.218 60.5882L336.337 61.0065Z" fill="#66CEEE"/>
<path d="M336.278 56.1071L334.127 50.4307L336.278 55.5096V56.1071Z" fill="#66CEEE"/>
<path d="M312.257 62.7402H295.407V75.5272H312.257V62.7402Z" fill="#00ADE2"/>
<path d="M313.99 59.9316H293.734V62.74H313.99V59.9316Z" fill="#00ADE2"/>
<path d="M312.257 47.2646H295.407V60.0516H312.257V47.2646Z" fill="#00ADE2"/>
<path d="M313.99 44.4561H293.734V47.2644H313.99V44.4561Z" fill="#00ADE2"/>
<path d="M312.257 31.8486H295.407V44.6356H312.257V31.8486Z" fill="#00ADE2"/>
<path d="M313.99 29.04H293.734V31.8484H313.99V29.04Z" fill="#00ADE2"/>
<path opacity="0.53" d="M302.219 64.7119H300.008V68.1775H302.219V64.7119Z" fill="#0DCFFC"/>
<path opacity="0.53" d="M307.298 64.7119H305.087V68.1775H307.298V64.7119Z" fill="#0DCFFC"/>
<path opacity="0.53" d="M302.219 70.0293H300.008V73.4949H302.219V70.0293Z" fill="#0DCFFC"/>
<path opacity="0.53" d="M307.298 70.0293H305.087V73.4949H307.298V70.0293Z" fill="#0DCFFC"/>
<path opacity="0.53" d="M302.219 49.1758H300.008V52.6414H302.219V49.1758Z" fill="#0DCFFC"/>
<path opacity="0.53" d="M307.298 49.1758H305.087V52.6414H307.298V49.1758Z" fill="#0DCFFC"/>
<path opacity="0.53" d="M302.219 54.4941H300.008V57.9598H302.219V54.4941Z" fill="#0DCFFC"/>
<path opacity="0.53" d="M307.298 54.4941H305.087V57.9598H307.298V54.4941Z" fill="#0DCFFC"/>
<path opacity="0.53" d="M302.219 33.999H300.008V37.4647H302.219V33.999Z" fill="#0DCFFC"/>
<path opacity="0.53" d="M307.298 33.999H305.087V37.4647H307.298V33.999Z" fill="#0DCFFC"/>
<path opacity="0.53" d="M302.219 39.2568H300.008V42.7225H302.219V39.2568Z" fill="#0DCFFC"/>
<path opacity="0.53" d="M307.298 39.2568H305.087V42.7225H307.298V39.2568Z" fill="#0DCFFC"/>
<path d="M286.683 74.5111L277.422 76.1244C276.585 76.3037 275.749 75.7062 275.569 74.8696L274.374 68.1177C274.195 67.2811 274.793 66.4446 275.629 66.2653L284.891 64.652C285.727 64.4728 286.564 65.0703 286.743 65.9068L287.938 72.6588C288.117 73.4953 287.52 74.3319 286.683 74.5111Z" fill="#00ADE2"/>
<path d="M274.793 76.782L271.028 77.4393C270.67 77.499 270.311 77.26 270.192 76.9015L270.072 76.2442C269.714 74.0931 271.148 72.0018 273.299 71.6433L273.837 71.5238C274.195 71.464 274.554 71.7031 274.673 72.0616L275.39 75.9455C275.39 76.3637 275.151 76.7222 274.793 76.782Z" fill="#00ADE2"/>
<path d="M273.06 79.1716C273.918 79.1716 274.613 78.476 274.613 77.618C274.613 76.76 273.918 76.0645 273.06 76.0645C272.202 76.0645 271.506 76.76 271.506 77.618C271.506 78.476 272.202 79.1716 273.06 79.1716Z" fill="#00ADE2"/>
<path d="M279.095 77.9763C279.953 77.9763 280.648 77.2807 280.648 76.4227C280.648 75.5647 279.953 74.8691 279.095 74.8691C278.237 74.8691 277.541 75.5647 277.541 76.4227C277.541 77.2807 278.237 77.9763 279.095 77.9763Z" fill="#00ADE2"/>
<path d="M285.01 76.9606C285.868 76.9606 286.564 76.2651 286.564 75.4071C286.564 74.5491 285.868 73.8535 285.01 73.8535C284.152 73.8535 283.457 74.5491 283.457 75.4071C283.457 76.2651 284.152 76.9606 285.01 76.9606Z" fill="#00ADE2"/>
<path d="M273.478 72.0611L274.972 69.0137L274.793 68.3564L272.821 72.3001L273.478 72.0611Z" fill="#00ADE2"/>
<path d="M187.136 110.84L190.662 7.17022L188.929 6.75195L185.702 110.84H187.136Z" fill="white"/>
<path d="M96.7908 20.6747C66.5562 20.6747 31.1232 17.2091 -0.366211 5.1989L-0.127206 4.66113C42.4761 20.9137 92.4289 21.3917 126.786 18.9419C164.012 16.3128 191.498 9.68032 191.797 9.62056L191.916 10.2181C191.618 10.2778 164.072 16.9103 126.786 19.5394C117.764 20.1967 107.606 20.6747 96.7908 20.6747Z" fill="white"/>
<path d="M141.127 34.2383C138.438 26.7095 136.407 23.3037 136.407 23.3037L135.809 20.4355L131.268 21.1526C130.611 21.2721 129.894 21.3318 129.236 21.3916L124.636 21.6306V24.6182C124.636 24.6182 123.381 28.3228 122.305 36.2699C121.23 44.2169 121.17 45.8302 121.17 45.8302C121.17 45.8302 121.648 46.7863 122.723 46.7863C123.202 46.7863 123.799 46.6668 124.576 46.1887L124.636 48.1008C124.636 48.1008 125.592 48.5191 127.205 47.9215C127.265 47.9215 127.324 47.8618 127.324 47.8618L128.938 47.4435L128.997 48.9971C128.997 48.9971 130.491 49.5349 131.447 48.4593C131.567 48.3398 131.686 48.2203 131.746 48.1008C132.344 47.4435 132.523 47.324 132.822 47.324C132.881 47.324 132.941 47.324 133.061 47.324C133.359 47.2643 133.539 47.3838 134.256 47.8618C134.375 47.9216 134.495 48.0411 134.614 48.1606C135.749 49.0568 137.124 48.2203 137.124 48.2203L136.885 46.6668L138.558 46.7265C138.618 46.7265 138.677 46.7265 138.677 46.7265C140.41 46.9655 141.247 46.368 141.247 46.368L140.888 44.4559C141.725 44.7547 142.322 44.7547 142.8 44.6352C143.876 44.3962 144.115 43.3804 144.115 43.3804C144.115 43.3804 143.816 41.7671 141.127 34.2383Z" fill="#00B6EB"/>
<g opacity="0.4">
<path opacity="0.4" d="M142.86 44.5752C142.382 44.6947 141.785 44.6947 140.948 44.3959L138.14 27.9043L142.86 44.5752Z" fill="#0296C9"/>
<path opacity="0.4" d="M138.737 46.6665C138.677 46.6665 138.617 46.6665 138.617 46.6665L136.944 46.6067L134.196 27.9043L138.737 46.6665Z" fill="#0296C9"/>
<path opacity="0.4" d="M122.843 46.7266C123.321 46.7266 123.919 46.6071 124.695 46.129L123.978 29.3984L122.843 46.7266Z" fill="#0296C9"/>
<path opacity="0.4" d="M127.265 47.8617C127.324 47.8617 127.384 47.8019 127.384 47.8019L128.997 47.3836L127.802 28.502L127.265 47.8617Z" fill="#0296C9"/>
<path opacity="0.4" d="M131.208 28.1436L131.866 47.9813C132.463 47.324 132.642 47.2045 132.941 47.2045C133.001 47.2045 133.061 47.2045 133.18 47.2045C133.479 47.1448 133.658 47.2643 134.375 47.7423L131.208 28.1436Z" fill="#0296C9"/>
</g>
<path d="M45.4005 15.5352L44.2615 15.0088L42.7324 18.3173L43.8714 18.8436L45.4005 15.5352Z" fill="white"/>
<path d="M80.6105 18.454L79.3684 18.2764L78.8523 21.8844L80.0944 22.0621L80.6105 18.454Z" fill="white"/>
<path d="M25.3273 11.4131H24.0725V15.058H25.3273V11.4131Z" fill="white"/>
<path d="M60.9396 17.5674H59.6848V21.2123H60.9396V17.5674Z" fill="white"/>
<path d="M107.307 19.0605H106.052V22.7054H107.307V19.0605Z" fill="white"/>
<path d="M97.986 19.2998H96.7312V22.9447H97.986V19.2998Z" fill="white"/>
<path d="M134.451 17.7472L133.253 18.123L134.345 21.6006L135.542 21.2248L134.451 17.7472Z" fill="white"/>
<path d="M126.488 19.2998H125.233V22.9447H126.488V19.2998Z" fill="white"/>
<path d="M154.511 19.8975L154.452 20.6743L154.392 21.5108C153.735 21.6303 153.077 21.5705 152.42 21.3315C152.062 21.212 151.763 21.0328 151.524 20.7938C151.165 20.495 151.165 19.8975 151.584 19.6585L153.376 18.4634L153.555 18.3439C153.615 18.3439 153.615 18.2842 153.675 18.2842L154.511 19.8975Z" fill="#00B6EB"/>
<path opacity="0.24" d="M154.512 19.8979L154.452 20.6747L154.392 21.5112C153.735 21.6307 153.077 21.571 152.42 21.332C152.062 21.2125 151.763 21.0332 151.524 20.7942C151.285 20.5552 151.225 20.2565 151.345 19.9577C151.584 20.1967 151.942 20.376 152.241 20.4955C152.838 20.7345 153.556 20.7942 154.213 20.6747L154.273 19.8382V19.4199L154.512 19.8979Z" fill="#1976D2"/>
<path d="M164.669 17.6269C164.729 17.8062 164.669 17.9257 164.609 18.1049C164.43 18.4037 164.251 18.7025 164.012 19.0012C163.534 19.4792 162.936 19.8378 162.279 19.9573L161.562 19.2402L161.204 18.8817L161.562 16.6709C161.622 16.6709 161.682 16.6709 161.741 16.6709H161.801L162.16 16.7307L164.012 17.0294C164.251 17.0892 164.37 17.2087 164.49 17.3282C164.49 17.3879 164.55 17.4477 164.55 17.4477C164.609 17.5672 164.609 17.5672 164.669 17.6269C164.609 17.5672 164.609 17.5672 164.669 17.6269C164.609 17.5672 164.609 17.5672 164.669 17.6269Z" fill="#00B6EB"/>
<path opacity="0.24" d="M164.669 17.6273C164.729 17.8065 164.669 17.926 164.609 18.1053C164.43 18.404 164.251 18.7028 164.012 19.0015C163.534 19.4796 162.936 19.8381 162.279 19.9576L161.562 19.2406L161.204 18.882L161.323 18.2845L161.383 18.3443L162.1 19.0613C162.757 18.9418 163.355 18.5833 163.833 18.1053C164.072 17.8663 164.311 17.5675 164.43 17.209C164.49 17.2687 164.55 17.3285 164.55 17.3882C164.55 17.448 164.609 17.5077 164.609 17.5077C164.609 17.5675 164.609 17.5675 164.669 17.6273C164.609 17.5675 164.609 17.5675 164.669 17.6273C164.609 17.5675 164.609 17.5675 164.669 17.6273Z" fill="#1976D2"/>
<path d="M161.562 16.6113L162.638 21.6903V23.7218L155.886 24.4986H155.647L154.81 23.3036L153.735 18.2246C153.794 18.2246 153.854 18.1649 153.974 18.1649L155.228 17.9259C155.408 17.8661 155.527 17.9259 155.706 17.9856C155.826 18.0454 155.945 18.2246 155.945 18.3441C156.065 18.8222 156.364 19.2404 156.722 19.5392C157.14 19.7782 157.619 19.8977 158.156 19.8379C158.634 19.7184 159.053 19.4197 159.351 19.0612C159.59 18.6429 159.71 18.1649 159.65 17.6271C159.59 17.3284 159.77 16.9698 160.128 16.9101L161.383 16.6711C161.383 16.6113 161.502 16.6113 161.562 16.6113Z" fill="#0296C9"/>
<path d="M154.511 18.0449L156.005 25.2749L155.348 24.7969L154.75 23.3031L153.675 18.2242C153.735 18.2242 153.794 18.1644 153.914 18.1644L154.511 18.0449Z" fill="#0296C9"/>
<path d="M162.638 21.6904L163.056 23.8415L155.228 25.4548L155.707 24.2598L154.75 23.3037L162.638 21.6904Z" fill="#0296C9"/>
<path d="M155.826 24.3193L155.587 23.1242L154.81 23.3035L155.229 25.4545L156.005 25.2753L163.056 23.8412L162.877 23.0645L156.005 24.4985C155.946 24.4985 155.886 24.4388 155.826 24.3193Z" fill="#0296C9"/>
<path d="M155.228 25.4551L152.719 36.2703C152.599 36.8678 153.018 37.3458 153.675 37.4653C155.527 37.8238 158.395 38.0628 161.741 37.3458C165.147 36.6288 167.657 35.2545 169.21 34.2387C169.808 33.8802 169.927 33.2229 169.629 32.7449L163.056 23.8418L155.228 25.4551Z" fill="#00B6EB"/>
<g opacity="0.4">
<path opacity="0.4" d="M153.854 37.5254C153.794 37.5254 153.735 37.5254 153.675 37.5254C153.018 37.4059 152.599 36.8681 152.719 36.3303L155.228 25.5152L156.005 25.3359L153.615 36.6889C153.555 36.9876 153.675 37.2864 153.854 37.5254Z" fill="#0296C9"/>
<path opacity="0.4" d="M156.901 25.1566L157.559 25.0371L156.364 37.8241C156.125 37.8241 155.945 37.8241 155.766 37.7643L156.901 25.1566Z" fill="#0296C9"/>
<path opacity="0.4" d="M158.813 24.7377L159.411 24.6182L162.04 37.3454C161.921 37.3454 161.861 37.4051 161.741 37.4051C161.622 37.4051 161.562 37.4649 161.443 37.4649L158.813 24.7377Z" fill="#0296C9"/>
<path opacity="0.4" d="M167.478 35.3141C167.298 35.4336 167.119 35.4934 166.94 35.6129L160.785 24.3197L161.443 24.2002L167.478 35.3141Z" fill="#0296C9"/>
</g>
<path d="M160.829 14.3759L159.609 14.6709L160.466 18.2137L161.685 17.9187L160.829 14.3759Z" fill="white"/>
<path d="M154.246 15.2714L153.026 15.5664L153.883 19.1092L155.103 18.8142L154.246 15.2714Z" fill="white"/>
</g>
<defs>
<clipPath id="clip0_35575_10131">
<rect width="540.1" height="199.274" fill="white" transform="translate(-79)"/>
</clipPath>
</defs>
</svg>
