<svg width="46" height="47" viewBox="0 0 46 47" fill="none" xmlns="http://www.w3.org/2000/svg">
<circle opacity="0.3" cx="23" cy="23" r="23" fill="white"/>
<g filter="url(#filter0_d_35575_8017)">
<path d="M15.3491 19.9469C14.3358 19.9469 13.4379 19.9842 12.5528 19.922C12.2706 19.9095 11.9114 19.7228 11.7319 19.5113C11.1546 18.8392 10.6415 18.0924 10.0771 17.3333C11.3599 16.2505 12.6682 15.2672 13.8227 14.1347C14.9771 13.0021 16.4266 12.6412 17.8889 12.2429C19.6847 15.902 25.2517 15.9518 27.0475 12.2305C28.4585 12.6536 29.8823 12.9648 31.0111 14.06C32.1912 15.2175 33.538 16.2256 34.8592 17.3457C34.2307 18.1671 33.6535 18.9761 33.0249 19.7602C32.9223 19.8846 32.6529 19.922 32.4605 19.9344C31.5498 19.9469 30.6262 19.9469 29.6386 19.9469C29.6386 24.6389 29.6386 29.2812 29.6386 33.9484C24.854 33.9484 20.1465 33.9484 15.3619 33.9484C15.3491 29.3186 15.3491 24.6763 15.3491 19.9469Z" fill="white"/>
</g>
<defs>
<filter id="filter0_d_35575_8017" x="5.07715" y="9.23047" width="40.7822" height="37.7178" filterUnits="userSpaceOnUse" color-interpolation-filters="sRGB">
<feFlood flood-opacity="0" result="BackgroundImageFix"/>
<feColorMatrix in="SourceAlpha" type="matrix" values="0 0 0 0 0 0 0 0 0 0 0 0 0 0 0 0 0 0 127 0" result="hardAlpha"/>
<feOffset dx="3" dy="5"/>
<feGaussianBlur stdDeviation="4"/>
<feComposite in2="hardAlpha" operator="out"/>
<feColorMatrix type="matrix" values="0 0 0 0 0.100104 0 0 0 0 0.713992 0 0 0 0 0.775 0 0 0 1 0"/>
<feBlend mode="normal" in2="BackgroundImageFix" result="effect1_dropShadow_35575_8017"/>
<feBlend mode="normal" in="SourceGraphic" in2="effect1_dropShadow_35575_8017" result="shape"/>
</filter>
</defs>
</svg>
