<svg width="28" height="28" viewBox="0 0 28 28" fill="none" xmlns="http://www.w3.org/2000/svg">
<path d="M8.44683 2.3335H6.23016C3.67516 2.3335 2.3335 3.67516 2.3335 6.2185V8.43516C2.3335 10.9785 3.67516 12.3202 6.2185 12.3202H8.43516C10.9785 12.3202 12.3202 10.9785 12.3202 8.43516V6.2185C12.3318 3.67516 10.9902 2.3335 8.44683 2.3335Z" fill="#fff"/>
<path d="M21.7818 2.3335H19.5652C17.0218 2.3335 15.6802 3.67516 15.6802 6.2185V8.43516C15.6802 10.9785 17.0218 12.3202 19.5652 12.3202H21.7818C24.3252 12.3202 25.6668 10.9785 25.6668 8.43516V6.2185C25.6668 3.67516 24.3252 2.3335 21.7818 2.3335Z" fill="#fff"/>
<path d="M21.7818 15.6685H19.5652C17.0218 15.6685 15.6802 17.0101 15.6802 19.5535V21.7701C15.6802 24.3135 17.0218 25.6551 19.5652 25.6551H21.7818C24.3252 25.6551 25.6668 24.3135 25.6668 21.7701V19.5535C25.6668 17.0101 24.3252 15.6685 21.7818 15.6685Z" fill="#fff"/>
<path d="M8.44683 15.6685H6.23016C3.67516 15.6685 2.3335 17.0101 2.3335 19.5535V21.7701C2.3335 24.3251 3.67516 25.6668 6.2185 25.6668H8.43516C10.9785 25.6668 12.3202 24.3251 12.3202 21.7818V19.5651C12.3318 17.0101 10.9902 15.6685 8.44683 15.6685Z" fill="#fff"/>
</svg>
