<svg width="28" height="28" viewBox="0 0 28 28" fill="none" xmlns="http://www.w3.org/2000/svg">
<path d="M22.5633 16.9047L21.3967 14.968C21.1517 14.5363 20.93 13.7197 20.93 13.2413V10.2897C20.93 7.54801 19.32 5.17968 16.9983 4.07134C16.3917 2.99801 15.2717 2.33301 13.9883 2.33301C12.7167 2.33301 11.5733 3.02134 10.9667 4.10634C8.69168 5.23801 7.11668 7.58301 7.11668 10.2897V13.2413C7.11668 13.7197 6.89501 14.5363 6.65001 14.9563L5.47168 16.9047C5.00501 17.6863 4.90001 18.5497 5.19168 19.343C5.47168 20.1247 6.13668 20.7313 7.00001 21.023C9.26335 21.793 11.6433 22.1663 14.0233 22.1663C16.4033 22.1663 18.7833 21.793 21.0467 21.0347C21.8633 20.7663 22.4933 20.148 22.7967 19.343C23.1 18.538 23.0183 17.6513 22.5633 16.9047Z" fill="#fff"/>
<path d="M17.3016 23.3447C16.8116 24.698 15.5166 25.6664 14 25.6664C13.0783 25.6664 12.1683 25.293 11.5266 24.628C11.1533 24.278 10.8733 23.8113 10.71 23.333C10.8616 23.3563 11.0133 23.368 11.1766 23.3913C11.445 23.4263 11.725 23.4613 12.005 23.4847C12.67 23.543 13.3466 23.578 14.0233 23.578C14.6883 23.578 15.3533 23.543 16.0066 23.4847C16.2516 23.4613 16.4966 23.4497 16.73 23.4147C16.9166 23.3913 17.1033 23.368 17.3016 23.3447Z" fill="#fff"/>
</svg>
