<svg width="28" height="28" viewBox="0 0 28 28" fill="none" xmlns="http://www.w3.org/2000/svg">
<path d="M19.5418 4.15301V2.33301C19.5418 1.85467 19.1451 1.45801 18.6668 1.45801C18.1884 1.45801 17.7918 1.85467 17.7918 2.33301V4.08301H10.2084V2.33301C10.2084 1.85467 9.81177 1.45801 9.33344 1.45801C8.85511 1.45801 8.45844 1.85467 8.45844 2.33301V4.15301C5.30844 4.44467 3.7801 6.32301 3.54677 9.11134C3.52344 9.44967 3.80344 9.72967 4.1301 9.72967H23.8701C24.2084 9.72967 24.4884 9.43801 24.4534 9.11134C24.2201 6.32301 22.6918 4.44467 19.5418 4.15301Z" fill="#fff"/>
<path d="M23.3333 11.4805H4.66667C4.025 11.4805 3.5 12.0055 3.5 12.6471V19.8338C3.5 23.3338 5.25 25.6671 9.33333 25.6671H18.6667C22.75 25.6671 24.5 23.3338 24.5 19.8338V12.6471C24.5 12.0055 23.975 11.4805 23.3333 11.4805ZM10.745 21.2455C10.6283 21.3505 10.5 21.4321 10.36 21.4905C10.22 21.5488 10.0683 21.5838 9.91667 21.5838C9.765 21.5838 9.61333 21.5488 9.47333 21.4905C9.33333 21.4321 9.205 21.3505 9.08833 21.2455C8.87833 21.0238 8.75 20.7205 8.75 20.4171C8.75 20.1138 8.87833 19.8105 9.08833 19.5888C9.205 19.4838 9.33333 19.4021 9.47333 19.3438C9.75333 19.2271 10.08 19.2271 10.36 19.3438C10.5 19.4021 10.6283 19.4838 10.745 19.5888C10.955 19.8105 11.0833 20.1138 11.0833 20.4171C11.0833 20.7205 10.955 21.0238 10.745 21.2455ZM10.99 16.7771C10.9317 16.9171 10.85 17.0455 10.745 17.1621C10.6283 17.2671 10.5 17.3488 10.36 17.4071C10.22 17.4655 10.0683 17.5005 9.91667 17.5005C9.765 17.5005 9.61333 17.4655 9.47333 17.4071C9.33333 17.3488 9.205 17.2671 9.08833 17.1621C8.98333 17.0455 8.90167 16.9171 8.84333 16.7771C8.785 16.6371 8.75 16.4855 8.75 16.3338C8.75 16.1821 8.785 16.0305 8.84333 15.8905C8.90167 15.7505 8.98333 15.6221 9.08833 15.5055C9.205 15.4005 9.33333 15.3188 9.47333 15.2605C9.75333 15.1438 10.08 15.1438 10.36 15.2605C10.5 15.3188 10.6283 15.4005 10.745 15.5055C10.85 15.6221 10.9317 15.7505 10.99 15.8905C11.0483 16.0305 11.0833 16.1821 11.0833 16.3338C11.0833 16.4855 11.0483 16.6371 10.99 16.7771ZM14.8283 17.1621C14.7117 17.2671 14.5833 17.3488 14.4433 17.4071C14.3033 17.4655 14.1517 17.5005 14 17.5005C13.8483 17.5005 13.6967 17.4655 13.5567 17.4071C13.4167 17.3488 13.2883 17.2671 13.1717 17.1621C12.9617 16.9405 12.8333 16.6371 12.8333 16.3338C12.8333 16.0305 12.9617 15.7271 13.1717 15.5055C13.2883 15.4005 13.4167 15.3188 13.5567 15.2605C13.8367 15.1321 14.1633 15.1321 14.4433 15.2605C14.5833 15.3188 14.7117 15.4005 14.8283 15.5055C15.0383 15.7271 15.1667 16.0305 15.1667 16.3338C15.1667 16.6371 15.0383 16.9405 14.8283 17.1621Z" fill="#fff"/>
</svg>
