<svg width="26" height="26" viewBox="0 0 26 26" fill="none" xmlns="http://www.w3.org/2000/svg">
<path d="M19.8577 6.14282L7.13942 18.8611C6.66276 19.3378 5.86108 19.2728 5.47108 18.7095C4.12775 16.7486 3.33691 14.4303 3.33691 12.047V7.29115C3.33691 6.40282 4.00859 5.39532 4.83192 5.05949L10.8661 2.58949C12.2311 2.02616 13.7478 2.02616 15.1128 2.58949L19.4894 4.37699C20.2153 4.66949 20.3994 5.60116 19.8577 6.14282Z" fill="#1FACF3"/>
<path d="M20.8762 7.62676C21.5803 7.03093 22.6528 7.54008 22.6528 8.46091V12.0467C22.6528 17.3442 18.807 22.3059 13.5529 23.7576C13.1954 23.8551 12.8054 23.8551 12.437 23.7576C10.8987 23.3242 9.46866 22.5984 8.24449 21.6451C7.72449 21.2443 7.67034 20.4859 8.12534 20.0201C10.487 17.6043 17.3987 10.5626 20.8762 7.62676Z" fill="#34D5E5"/>
<circle cx="8" cy="9" r="2" fill="#34D5E5"/>
</svg>
