<svg width="26" height="26" viewBox="0 0 26 26" fill="currentColor" xmlns="http://www.w3.org/2000/svg">
<path d="M13 20.5837C17.1881 20.5837 20.5833 17.1885 20.5833 13.0003C20.5833 8.81217 17.1881 5.41699 13 5.41699C8.8118 5.41699 5.41663 8.81217 5.41663 13.0003C5.41663 17.1885 8.8118 20.5837 13 20.5837Z" fill="currentColor"/>
<path d="M13 24.873C12.4042 24.873 11.9167 24.4288 11.9167 23.833V23.7463C11.9167 23.1505 12.4042 22.663 13 22.663C13.5959 22.663 14.0834 23.1505 14.0834 23.7463C14.0834 24.3422 13.5959 24.873 13 24.873ZM20.735 21.818C20.4534 21.818 20.1825 21.7097 19.9659 21.5038L19.825 21.363C19.4025 20.9405 19.4025 20.258 19.825 19.8355C20.2475 19.413 20.93 19.413 21.3525 19.8355L21.4934 19.9763C21.9159 20.3988 21.9159 21.0813 21.4934 21.5038C21.2875 21.7097 21.0167 21.818 20.735 21.818ZM5.26504 21.818C4.98337 21.818 4.71254 21.7097 4.49587 21.5038C4.07337 21.0813 4.07337 20.3988 4.49587 19.9763L4.63671 19.8355C5.05921 19.413 5.74171 19.413 6.16421 19.8355C6.58671 20.258 6.58671 20.9405 6.16421 21.363L6.02337 21.5038C5.81754 21.7097 5.53587 21.818 5.26504 21.818ZM23.8334 14.083H23.7467C23.1509 14.083 22.6634 13.5955 22.6634 12.9997C22.6634 12.4038 23.1509 11.9163 23.7467 11.9163C24.3425 11.9163 24.8734 12.4038 24.8734 12.9997C24.8734 13.5955 24.4292 14.083 23.8334 14.083ZM2.25337 14.083H2.16671C1.57087 14.083 1.08337 13.5955 1.08337 12.9997C1.08337 12.4038 1.57087 11.9163 2.16671 11.9163C2.76254 11.9163 3.29337 12.4038 3.29337 12.9997C3.29337 13.5955 2.84921 14.083 2.25337 14.083ZM20.5942 6.48884C20.3125 6.48884 20.0417 6.38051 19.825 6.17467C19.4025 5.75217 19.4025 5.06967 19.825 4.64717L19.9659 4.50634C20.3884 4.08384 21.0709 4.08384 21.4934 4.50634C21.9159 4.92884 21.9159 5.61134 21.4934 6.03384L21.3525 6.17467C21.1467 6.38051 20.8759 6.48884 20.5942 6.48884ZM5.40587 6.48884C5.12421 6.48884 4.85337 6.38051 4.63671 6.17467L4.49587 6.02301C4.07337 5.60051 4.07337 4.91801 4.49587 4.49551C4.91837 4.07301 5.60087 4.07301 6.02337 4.49551L6.16421 4.63634C6.58671 5.05884 6.58671 5.74134 6.16421 6.16384C5.95837 6.38051 5.67671 6.48884 5.40587 6.48884ZM13 3.29301C12.4042 3.29301 11.9167 2.84884 11.9167 2.25301V2.16634C11.9167 1.57051 12.4042 1.08301 13 1.08301C13.5959 1.08301 14.0834 1.57051 14.0834 2.16634C14.0834 2.76217 13.5959 3.29301 13 3.29301Z" fill="currentColor"/>
</svg>
