<svg width="32" height="32" viewBox="0 0 32 32" fill="none" xmlns="http://www.w3.org/2000/svg">
<path d="M24.0534 18.0663C23.4934 18.613 23.1734 19.3997 23.2534 20.2397C23.3734 21.6797 24.6934 22.733 26.1334 22.733H28.6667V24.3197C28.6667 27.0797 26.4134 29.333 23.6534 29.333H8.34671C5.58671 29.333 3.33337 27.0797 3.33337 24.3197V15.3464C3.33337 12.5864 5.58671 10.333 8.34671 10.333H23.6534C26.4134 10.333 28.6667 12.5864 28.6667 15.3464V17.2664H25.9734C25.2267 17.2664 24.5467 17.5597 24.0534 18.0663Z" stroke="#34D5E5" stroke-width="3" stroke-linecap="round" stroke-linejoin="round"/>
<path d="M3.33337 16.5467V10.4535C3.33337 8.86681 4.30671 7.45341 5.78671 6.89341L16.3734 2.89341C18.0267 2.26675 19.8 3.49345 19.8 5.26679V10.3334" stroke="#34D5E5" stroke-width="3" stroke-linecap="round" stroke-linejoin="round"/>
<path d="M30.0785 18.6265V21.3733C30.0785 22.1066 29.4918 22.7066 28.7451 22.7332H26.1318C24.6918 22.7332 23.3718 21.6799 23.2518 20.2399C23.1718 19.3999 23.4918 18.6132 24.0518 18.0666C24.5451 17.5599 25.2251 17.2666 25.9718 17.2666H28.7451C29.4918 17.2933 30.0785 17.8932 30.0785 18.6265Z" stroke="#34D5E5" stroke-width="3" stroke-linecap="round" stroke-linejoin="round"/>
<path d="M9.33337 16H18.6667" stroke="#34D5E5" stroke-width="3" stroke-linecap="round" stroke-linejoin="round"/>
</svg>
